# xmcd CD database file
#
# Track frame offsets:
#	150
#	11553
#	27295
#	45320
#	56943
#	69955
#	80980
#	94063
#	107200
#	118700
#	132433
#	144153
#	158048
#	169128
#	182740
#	197528
#	207253
#	220055
#	230540
#	244100
#	256003
#	267048
#	279445
#	291010
#
# Disc length: 4032 seconds
#
# Revision: 4
# Processed by: cddbd v1.5.2PL0 Copyright (c) Steve Scherf et al.
# Submitted via: CDex 1.51
#
DISCID=550fbe18
DTITLE=Various Artist - Golden Country Groups - Disc 3
DYEAR=1988
DGENRE=Country
TTITLE0=The Everly Brothers - Send Me The Pillow That You Dream On
TTITLE1=Baillie And The Boys - Oh Heart
TTITLE2=Alabama - Lady Down On Love
TTITLE3=Merle Haggard And Leona Williams - We're Strangers Again
TTITLE4=T.G. Sheppard And Karen Brooks - Faking Love
TTITLE5=Loretta Lynn And Conway Twitty - Lead Me On
TTITLE6=Louise Mandrell And R.C. Bannon - You're My Super Woman, You're My Incredible Man
TTITLE7=Barbara Mandrell And Lee Greenwood - We Were Meant For Each Other
TTITLE8=Jimmy Dean And Dottie West - I Got You
TTITLE9=Gus Hardin And Earl Thomas Conley - All Tangled Up In Love
TTITLE10=The Everly Brothers - On The Wings Of A Nightingale
TTITLE11=Jim Ed Brown And Helen Cornelius - I Don't Want To Have To Marry You
TTITLE12=Johnny Lee And Lane Brody - The Yellow Rose
TTITLE13=Loretta Lynn And Conway Twitty - Feelin's
TTITLE14=The Bellamy Brothers - I Love Her Mind
TTITLE15=Porter Wagoner And Dolly Parton - If Teardrops Were Pennies
TTITLE16=Rex Allen, Jr. And Margo Smith - While The Feelin's Good
TTITLE17=The Kendalls - I'd Dance Every Dance With You
TTITLE18=Patsy Cline And Jim Reeves - Have You Ever Been Lonely (Have You Ever Been Blue)
TTITLE19=Kitty Wells And Red Foley - Have I Told You Lately That I Love You
TTITLE20=The Carlisles - No Help Wanted
TTITLE21=The Browns Featuring Jim Ed Brown - I Take The Chance
TTITLE22=Johnnie And Jack - Don't Let The Stars Get In Your Eyes
TTITLE23=Homer And Jethro - Hernando's Hideaway
EXTD=YEAR: 1988
EXTT0=
EXTT1=
EXTT2=
EXTT3=
EXTT4=
EXTT5=
EXTT6=
EXTT7=
EXTT8=
EXTT9=
EXTT10=
EXTT11=
EXTT12=
EXTT13=
EXTT14=
EXTT15=
EXTT16=
EXTT17=
EXTT18=
EXTT19=
EXTT20=
EXTT21=
EXTT22=
EXTT23=
PLAYORDER=
